<?xml version="1.0" encoding="UTF-8"?>
<svg xmlns="http://www.w3.org/2000/svg" xmlns:xlink="http://www.w3.org/1999/xlink" width="325pt" height="325pt" viewBox="0 0 325 325" version="1.1">
<g id="surface1">
<path style=" stroke:none;fill-rule:nonzero;fill:rgb(0%,0%,0%);fill-opacity:1;" d="M 162.5 23.359375 C 157.761719 24.714844 152.003906 29.792969 148.957031 34.53125 C 144.558594 42.996094 144.558594 44.347656 151.667969 53.828125 C 157.082031 61.277344 159.113281 68.722656 159.113281 81.25 L 159.113281 98.175781 L 134.0625 98.175781 C 107.65625 98.175781 104.949219 99.871094 104.949219 116.121094 C 104.609375 120.859375 99.871094 126.953125 91.40625 132.707031 C 70.753906 146.925781 59.246094 166.902344 59.246094 187.550781 C 59.582031 219.035156 83.957031 254.921875 111.042969 263.722656 C 122.214844 267.449219 123.566406 269.140625 123.90625 279.636719 C 124.246094 297.578125 128.644531 299.609375 161.824219 298.933594 C 232.917969 296.902344 242.734375 293.855469 239.347656 274.21875 C 237.996094 267.785156 240.363281 263.386719 250.519531 254.582031 C 257.628906 248.488281 267.785156 235.285156 272.863281 225.128906 C 280.3125 209.558594 281.667969 203.125 280.3125 185.519531 C 278.621094 158.097656 269.816406 140.496094 253.230469 130 C 245.78125 125.261719 240.363281 119.167969 240.363281 115.441406 C 240.363281 102.917969 231.222656 98.175781 206.847656 98.175781 L 183.828125 98.175781 L 181.457031 87.683594 C 177.394531 67.707031 179.089844 59.246094 187.214844 55.859375 C 196.015625 51.796875 198.722656 38.253906 192.292969 29.792969 C 186.875 23.019531 174.011719 19.972656 162.5 23.359375 Z M 188.90625 39.609375 C 190.9375 53.828125 159.453125 58.90625 154.375 45.363281 C 150.652344 35.886719 158.777344 30.128906 174.011719 31.144531 C 185.519531 31.824219 188.230469 33.515625 188.90625 39.609375 Z M 173.332031 79.558594 C 174.347656 97.839844 171.980469 103.59375 167.917969 92.761719 C 164.871094 84.636719 165.546875 60.9375 168.933594 60.9375 C 170.625 60.9375 172.65625 69.402344 173.332031 79.558594 Z M 228.855469 107.65625 C 230.886719 109.011719 233.253906 113.410156 234.269531 117.472656 C 236.300781 125.261719 235.625 125.261719 207.1875 125.261719 C 190.9375 125.261719 162.839844 124.246094 144.894531 122.890625 C 113.074219 120.859375 111.71875 120.519531 111.71875 112.734375 L 111.71875 104.949219 L 168.59375 104.949219 C 199.738281 104.949219 226.824219 106.300781 228.855469 107.65625 Z M 248.828125 136.09375 C 261.691406 141.847656 271.171875 159.792969 273.203125 182.8125 C 274.894531 200.078125 273.878906 205.496094 266.09375 221.40625 C 250.859375 252.550781 245.105469 255.261719 192.292969 260 C 111.71875 267.109375 83.621094 254.582031 69.0625 203.800781 C 63.984375 187.214844 63.984375 184.167969 69.402344 170.964844 C 72.449219 162.839844 80.910156 150.652344 88.359375 144.21875 L 101.5625 132.03125 L 170.964844 132.03125 C 216.667969 132.03125 243.074219 133.386719 248.828125 136.09375 Z M 248.828125 136.09375 "/>
<path style=" stroke:none;fill-rule:nonzero;fill:rgb(0%,0%,0%);fill-opacity:1;" d="M 208.203125 141.171875 C 177.394531 149.296875 169.949219 187.890625 196.015625 205.496094 C 223.4375 224.113281 260.675781 206.847656 260.675781 175.703125 C 260.675781 160.808594 248.488281 147.265625 230.546875 142.1875 C 223.777344 140.496094 217.683594 139.140625 216.667969 139.140625 C 215.652344 139.480469 211.925781 140.496094 208.203125 141.171875 Z M 236.300781 166.5625 C 241.71875 171.980469 241.378906 177.734375 234.949219 184.167969 C 228.855469 190.597656 212.941406 191.277344 207.1875 185.519531 C 201.769531 180.105469 202.109375 166.902344 207.527344 164.871094 C 215.3125 161.484375 232.238281 162.5 236.300781 166.5625 Z M 236.300781 166.5625 "/>
<path style=" stroke:none;fill-rule:nonzero;fill:rgb(0%,0%,0%);fill-opacity:1;" d="M 110.027344 145.234375 C 98.855469 149.972656 91.066406 161.144531 89.035156 175.027344 C 85.652344 200.078125 113.074219 221.40625 138.800781 213.621094 C 164.191406 206.171875 177.058594 178.410156 163.855469 159.792969 C 153.359375 144.894531 127.96875 138.125 110.027344 145.234375 Z M 142.527344 168.59375 C 156.746094 180.441406 138.125 198.386719 120.183594 190.261719 C 109.011719 185.183594 108.332031 170.285156 119.503906 165.886719 C 130.675781 161.484375 133.722656 161.824219 142.527344 168.59375 Z M 142.527344 168.59375 "/>
<path style=" stroke:none;fill-rule:nonzero;fill:rgb(0%,0%,0%);fill-opacity:1;" d="M 160.808594 226.484375 C 143.542969 228.515625 138.800781 233.59375 145.234375 243.410156 C 147.605469 246.796875 154.035156 248.152344 166.5625 247.472656 C 192.628906 246.457031 196.355469 244.765625 196.355469 233.253906 C 196.355469 222.421875 196.015625 222.421875 160.808594 226.484375 Z M 160.808594 226.484375 "/>
</g>
</svg>
