<?xml version="1.0" standalone="no"?>
<!DOCTYPE svg PUBLIC "-//W3C//DTD SVG 20010904//EN"
 "http://www.w3.org/TR/2001/REC-SVG-20010904/DTD/svg10.dtd">
<svg version="1.0" xmlns="http://www.w3.org/2000/svg"
 width="325.000000pt" height="325.000000pt" viewBox="0 0 325.000000 325.000000"
 preserveAspectRatio="xMidYMid meet">
<metadata>
Created by potrace 1.16, written by Peter Selinger 2001-2019
</metadata>
<g transform="translate(0.000000,325.000000) scale(0.100000,-0.100000)"
fill="#000000" stroke="none">
<path d="M1633 2598 c2 -513 -2 -583 -43 -783 -11 -49 -28 -121 -40 -160 -29
-101 -37 -165 -50 -395 -19 -362 -45 -530 -94 -615 -13 -22 -65 -79 -114 -127
-213 -205 -452 -340 -557 -314 -38 10 -113 83 -141 138 -43 86 -55 159 -61
376 -3 124 -9 202 -15 202 -18 0 -3 -414 17 -484 36 -129 104 -219 190 -252
42 -16 47 -15 112 5 135 41 309 158 476 320 114 111 139 155 166 296 18 94 26
177 51 568 8 110 18 187 36 255 67 250 83 360 91 612 7 233 -6 850 -18 850 -5
0 -7 -222 -6 -492z"/>
<path d="M1971 943 c-10 -38 -30 -116 -44 -174 -20 -87 -35 -124 -87 -212 -34
-58 -80 -126 -102 -151 -46 -53 -207 -164 -249 -173 -33 -6 -39 -23 -9 -23 46
0 208 108 275 182 48 54 136 201 171 286 l21 53 -4 -73 c-2 -40 -8 -103 -14
-139 -15 -113 16 -212 90 -287 33 -32 67 -42 146 -42 79 0 111 15 134 63 47
101 112 258 117 286 13 65 24 26 22 -84 -2 -134 16 -192 61 -201 14 -2 43 -14
63 -24 40 -21 158 -29 158 -10 0 6 -26 10 -57 10 -41 0 -67 6 -88 20 -16 11
-40 20 -53 20 -14 0 -29 11 -43 33 -19 30 -20 43 -14 232 2 110 8 253 11 318
4 73 2 117 -4 117 -15 0 -21 -36 -28 -160 -4 -75 -15 -146 -31 -205 -30 -108
-128 -342 -154 -370 -17 -17 -32 -20 -104 -19 -83 0 -86 1 -120 34 -20 19 -48
59 -62 88 -24 50 -25 58 -19 150 4 53 7 113 6 133 0 20 11 103 25 184 14 82
25 161 25 177 0 49 -19 30 -39 -39z"/>
</g>
</svg>
