<?xml version="1.0" encoding="UTF-8"?>
<svg xmlns="http://www.w3.org/2000/svg" xmlns:xlink="http://www.w3.org/1999/xlink" width="325pt" height="325pt" viewBox="0 0 325 325" version="1.1">
<g id="surface1">
<path style=" stroke:none;fill-rule:nonzero;fill:rgb(0%,0%,0%);fill-opacity:1;" d="M 162.601562 23.375 C 157.859375 24.730469 152.097656 29.8125 149.046875 34.550781 C 144.648438 43.023438 144.648438 44.375 151.761719 53.859375 C 157.179688 61.316406 159.210938 68.765625 159.210938 81.300781 L 159.210938 98.234375 L 134.144531 98.234375 C 107.722656 98.234375 105.015625 99.933594 105.015625 116.191406 C 104.671875 120.933594 99.933594 127.03125 91.460938 132.789062 C 70.796875 147.015625 59.28125 167.003906 59.28125 187.667969 C 59.617188 219.171875 84.007812 255.078125 111.113281 263.886719 C 122.289062 267.613281 123.640625 269.304688 123.984375 279.808594 C 124.324219 297.761719 128.722656 299.792969 161.925781 299.117188 C 233.0625 297.085938 242.882812 294.035156 239.496094 274.386719 C 238.144531 267.949219 240.511719 263.550781 250.671875 254.738281 C 257.789062 248.640625 267.949219 235.429688 273.03125 225.265625 C 280.484375 209.6875 281.839844 203.25 280.484375 185.632812 C 278.792969 158.195312 269.984375 140.582031 253.386719 130.078125 C 245.933594 125.339844 240.511719 119.242188 240.511719 115.511719 C 240.511719 102.980469 231.363281 98.234375 206.976562 98.234375 L 183.941406 98.234375 L 181.570312 87.738281 C 177.503906 67.75 179.199219 59.28125 187.332031 55.894531 C 196.136719 51.828125 198.84375 38.277344 192.410156 29.8125 C 186.988281 23.035156 174.117188 19.984375 162.601562 23.375 Z M 189.023438 39.632812 C 191.054688 53.859375 159.550781 58.941406 154.46875 45.390625 C 150.746094 35.910156 158.875 30.148438 174.117188 31.164062 C 185.632812 31.84375 188.347656 33.535156 189.023438 39.632812 Z M 173.4375 79.609375 C 174.453125 97.898438 172.085938 103.65625 168.019531 92.820312 C 164.972656 84.6875 165.648438 60.976562 169.039062 60.976562 C 170.730469 60.976562 172.761719 69.445312 173.4375 79.609375 Z M 228.996094 107.722656 C 231.027344 109.078125 233.398438 113.480469 234.414062 117.546875 C 236.445312 125.339844 235.769531 125.339844 207.316406 125.339844 C 191.054688 125.339844 162.941406 124.324219 144.984375 122.964844 C 113.144531 120.933594 111.789062 120.59375 111.789062 112.804688 L 111.789062 105.015625 L 168.699219 105.015625 C 199.859375 105.015625 226.964844 106.367188 228.996094 107.722656 Z M 248.980469 136.175781 C 261.851562 141.933594 271.339844 159.890625 273.371094 182.925781 C 275.0625 200.203125 274.046875 205.621094 266.257812 221.542969 C 251.015625 252.707031 245.257812 255.417969 192.410156 260.160156 C 111.789062 267.273438 83.671875 254.738281 69.105469 203.925781 C 64.023438 187.332031 64.023438 184.28125 69.445312 171.070312 C 72.492188 162.941406 80.960938 150.746094 88.414062 144.308594 L 101.625 132.113281 L 171.070312 132.113281 C 216.800781 132.113281 243.222656 133.46875 248.980469 136.175781 Z M 248.980469 136.175781 "/>
<path style=" stroke:none;fill-rule:nonzero;fill:rgb(0%,0%,0%);fill-opacity:1;" d="M 208.332031 141.257812 C 177.503906 149.390625 170.054688 188.007812 196.136719 205.621094 C 223.574219 224.25 260.835938 206.976562 260.835938 175.8125 C 260.835938 160.90625 248.640625 147.355469 230.6875 142.273438 C 223.914062 140.582031 217.816406 139.226562 216.800781 139.226562 C 215.785156 139.566406 212.054688 140.582031 208.332031 141.257812 Z M 236.445312 166.664062 C 241.867188 172.085938 241.527344 177.84375 235.09375 184.28125 C 228.996094 190.714844 213.074219 191.394531 207.316406 185.632812 C 201.894531 180.214844 202.234375 167.003906 207.65625 164.972656 C 215.445312 161.582031 232.382812 162.601562 236.445312 166.664062 Z M 236.445312 166.664062 "/>
<path style=" stroke:none;fill-rule:nonzero;fill:rgb(0%,0%,0%);fill-opacity:1;" d="M 110.09375 145.324219 C 98.917969 150.066406 91.121094 161.242188 89.089844 175.136719 C 85.707031 200.203125 113.144531 221.542969 138.886719 213.753906 C 164.292969 206.296875 177.167969 178.519531 163.957031 159.890625 C 153.453125 144.984375 128.046875 138.210938 110.09375 145.324219 Z M 142.613281 168.699219 C 156.84375 180.550781 138.210938 198.507812 120.257812 190.378906 C 109.078125 185.296875 108.398438 170.390625 119.578125 165.988281 C 130.757812 161.582031 133.804688 161.925781 142.613281 168.699219 Z M 142.613281 168.699219 "/>
<path style=" stroke:none;fill-rule:nonzero;fill:rgb(0%,0%,0%);fill-opacity:1;" d="M 160.90625 226.625 C 143.632812 228.65625 138.886719 233.738281 145.324219 243.558594 C 147.695312 246.949219 154.128906 248.304688 166.664062 247.625 C 192.746094 246.609375 196.476562 244.917969 196.476562 233.398438 C 196.476562 222.558594 196.136719 222.558594 160.90625 226.625 Z M 160.90625 226.625 "/>
</g>
</svg>
