<?xml version="1.0" standalone="no"?>
<!DOCTYPE svg PUBLIC "-//W3C//DTD SVG 20010904//EN"
 "http://www.w3.org/TR/2001/REC-SVG-20010904/DTD/svg10.dtd">
<svg version="1.0" xmlns="http://www.w3.org/2000/svg"
 width="96.000000pt" height="96.000000pt" viewBox="0 0 96.000000 96.000000"
 preserveAspectRatio="xMidYMid meet">

<g transform="translate(0.000000,96.000000) scale(0.100000,-0.100000)"
fill="#000000" stroke="none">
<path d="M480 891 c-14 -4 -31 -19 -40 -33 -13 -25 -13 -29 8 -57 16 -22 22
-44 22 -81 l0 -50 -74 0 c-78 0 -86 -5 -86 -53 -1 -14 -15 -32 -40 -49 -61
-42 -95 -101 -95 -162 1 -93 73 -199 153 -225 33 -11 37 -16 38 -47 1 -53 14
-59 112 -57 210 6 239 15 229 73 -4 19 3 32 33 58 21 18 51 57 66 87 22 46 26
65 22 117 -5 81 -31 133 -80 164 -22 14 -38 32 -38 43 0 37 -27 51 -99 51
l-68 0 -7 31 c-12 59 -7 84 17 94 26 12 34 52 15 77 -16 20 -54 29 -88 19z
m78 -48 c6 -42 -87 -57 -102 -17 -11 28 13 45 58 42 34 -2 42 -7 44 -25z m-46
-118 c3 -54 -4 -71 -16 -39 -9 24 -7 94 3 94 5 0 11 -25 13 -55z m164 -83 c6
-4 13 -17 16 -29 6 -23 4 -23 -80 -23 -48 0 -131 3 -184 7 -94 6 -98 7 -98 30
l0 23 168 0 c92 0 172 -4 178 -8z m59 -84 c38 -17 66 -70 72 -138 5 -51 2 -67
-21 -114 -45 -92 -62 -100 -218 -114 -238 -21 -321 16 -364 166 -15 49 -15 58
1 97 9 24 34 60 56 79 l39 36 205 0 c135 0 213 -4 230 -12z"/>
<path d="M615 543 c-91 -24 -113 -138 -36 -190 81 -55 191 -4 191 88 0 44 -36
84 -89 99 -20 5 -38 9 -41 9 -3 -1 -14 -4 -25 -6z m83 -75 c16 -16 15 -33 -4
-52 -18 -19 -65 -21 -82 -4 -16 16 -15 55 1 61 23 10 73 7 85 -5z"/>
<path d="M325 531 c-33 -14 -56 -47 -62 -88 -10 -74 71 -137 147 -114 75 22
113 104 74 159 -31 44 -106 64 -159 43z m96 -69 c42 -35 -13 -88 -66 -64 -33
15 -35 59 -2 72 33 13 42 12 68 -8z"/>
<path d="M475 291 c-51 -6 -65 -21 -46 -50 7 -10 26 -14 63 -12 77 3 88 8 88
42 0 32 -1 32 -105 20z"/>
</g>
</svg>
