<?xml version="1.0" encoding="UTF-8"?>
<svg xmlns="http://www.w3.org/2000/svg" xmlns:xlink="http://www.w3.org/1999/xlink" width="120pt" height="120pt" viewBox="0 0 120 120" version="1.1">
<g id="surface1">
<path style=" stroke:none;fill-rule:nonzero;fill:rgb(0%,0%,0%);fill-opacity:1;" d="M 60.289062 5.753906 C 60.042969 5.910156 60.035156 6.0625 60.117188 10.320312 C 60.152344 12.636719 60.222656 15.628906 60.257812 16.976562 C 60.546875 26.632812 60.613281 32.175781 60.476562 36.292969 C 60.164062 45.800781 59.191406 52.476562 57.160156 59.078125 C 56.640625 60.765625 56.496094 61.339844 56.300781 62.457031 C 55.890625 64.871094 55.683594 67.382812 55.394531 73.199219 C 54.847656 84.457031 54.339844 88.796875 53.050781 93.515625 C 52.605469 95.148438 52.351562 95.671875 51.472656 96.863281 C 50.160156 98.628906 47.089844 101.691406 44.328125 103.984375 C 39.578125 107.925781 34.613281 111.011719 31.074219 112.222656 C 29.589844 112.726562 28.074219 112.894531 27.273438 112.625 C 26.539062 112.382812 25.4375 111.660156 24.449219 110.789062 C 22.105469 108.71875 20.570312 105.171875 19.964844 100.410156 C 19.679688 98.125 19.640625 97.085938 19.664062 91.527344 L 19.679688 86.214844 L 19.503906 86.09375 C 19.289062 85.957031 19.066406 86.015625 18.929688 86.230469 C 18.792969 86.445312 18.699219 94.535156 18.8125 96.695312 C 18.964844 99.816406 19.238281 101.886719 19.75 103.941406 C 20.542969 107.089844 22.113281 109.921875 23.953125 111.5 C 24.984375 112.386719 26.035156 113.066406 26.855469 113.382812 C 27.40625 113.59375 28.472656 113.65625 29.328125 113.527344 C 33.46875 112.921875 40.539062 108.617188 47.03125 102.742188 C 50.234375 99.851562 52.503906 97.238281 53.261719 95.570312 C 54.011719 93.90625 54.890625 89.871094 55.351562 85.957031 C 55.480469 84.890625 55.703125 82.429688 55.828125 80.839844 C 55.898438 79.878906 56.078125 76.722656 56.222656 73.8125 C 56.5625 67.011719 56.769531 64.589844 57.195312 62.351562 C 57.367188 61.425781 57.5 60.914062 57.953125 59.429688 C 59.496094 54.347656 60.347656 49.867188 60.902344 43.789062 C 61.476562 37.546875 61.535156 31.679688 61.160156 18.5625 C 61.101562 16.578125 61.015625 12.929688 60.972656 10.453125 C 60.910156 6.550781 60.878906 5.933594 60.777344 5.816406 C 60.664062 5.6875 60.425781 5.660156 60.289062 5.753906 Z M 60.289062 5.753906 "/>
<path style=" stroke:none;fill-rule:nonzero;fill:rgb(0%,0%,0%);fill-opacity:1;" d="M 73.5 82.871094 C 73.441406 82.941406 73.363281 83.09375 73.34375 83.21875 C 73.3125 83.332031 73.097656 84.003906 72.867188 84.703125 C 72.570312 85.601562 72.3125 86.613281 71.972656 88.199219 C 70.828125 93.625 70.523438 94.714844 69.738281 96.25 C 69.285156 97.144531 67.113281 100.90625 66.257812 102.28125 C 65.421875 103.617188 64.605469 104.652344 63.617188 105.632812 C 62.386719 106.859375 61.425781 107.585938 57.78125 110.046875 C 56.496094 110.917969 55.457031 111.371094 54.527344 111.480469 C 54.054688 111.53125 53.84375 111.660156 53.84375 111.90625 C 53.84375 112.230469 54.011719 112.335938 54.5 112.324219 C 55.496094 112.289062 56.734375 111.78125 58.132812 110.847656 C 62.832031 107.703125 64.265625 106.507812 65.847656 104.410156 C 66.617188 103.386719 67 102.773438 68.765625 99.722656 C 70.949219 95.960938 71.28125 95.21875 71.902344 92.550781 C 72.074219 91.816406 72.21875 91.238281 72.21875 91.269531 C 72.226562 91.296875 72.101562 92.125 71.957031 93.105469 C 71.691406 94.84375 71.683594 94.945312 71.707031 96.660156 C 71.71875 98.3125 71.707031 98.476562 71.546875 99.148438 C 71.207031 100.546875 71.136719 101.128906 71.09375 102.714844 C 71.035156 105.058594 71.265625 106.363281 72.042969 107.941406 C 73.023438 109.945312 74.589844 111.824219 75.816406 112.46875 C 76.519531 112.84375 77.03125 112.898438 79.757812 112.90625 C 82.980469 112.914062 83.324219 112.835938 84.191406 111.941406 C 84.703125 111.40625 85.105469 110.644531 85.546875 109.347656 C 86.019531 107.957031 86.070312 107.832031 86.957031 105.945312 C 88.386719 102.878906 88.816406 101.757812 89.554688 99.191406 L 89.871094 98.074219 L 89.921875 98.828125 C 89.949219 99.242188 89.957031 101.121094 89.941406 103.003906 C 89.921875 106.050781 89.933594 106.5 90.050781 107.113281 C 90.382812 108.855469 91.082031 110.195312 91.867188 110.59375 C 91.988281 110.652344 92.429688 110.746094 92.839844 110.789062 C 93.734375 110.890625 93.878906 110.945312 94.683594 111.472656 C 95.707031 112.136719 95.910156 112.214844 96.78125 112.300781 C 97.207031 112.335938 98.175781 112.375 98.917969 112.375 C 100.265625 112.375 100.273438 112.375 100.453125 112.195312 C 100.632812 112.011719 100.640625 111.796875 100.464844 111.617188 C 100.429688 111.574219 99.585938 111.53125 98.40625 111.5 C 96.164062 111.457031 96.234375 111.472656 95.339844 110.867188 C 94.359375 110.210938 94.015625 110.066406 93.097656 109.960938 C 92.652344 109.910156 92.21875 109.828125 92.140625 109.777344 C 91.773438 109.546875 91.238281 108.472656 91.015625 107.507812 C 90.777344 106.492188 90.757812 105.863281 90.777344 100.371094 L 90.808594 94.894531 L 90.996094 94.246094 C 91.355469 92.992188 91.40625 92.429688 91.476562 89.128906 C 91.515625 87.417969 91.5625 85.644531 91.585938 85.179688 C 91.628906 84.429688 91.621094 84.3125 91.507812 84.191406 C 91.347656 84.011719 91.023438 84.003906 90.871094 84.167969 C 90.742188 84.320312 90.699219 84.695312 90.613281 86.390625 C 90.5625 87.414062 90.511719 87.757812 90.316406 88.480469 C 89.949219 89.847656 89.933594 90 90.035156 91.414062 C 90.164062 93.308594 90.101562 94.210938 89.746094 95.382812 C 89.589844 95.910156 89.292969 96.933594 89.089844 97.667969 C 88.074219 101.332031 87.78125 102.136719 85.96875 106.03125 C 85.597656 106.84375 85.089844 108.0625 84.851562 108.734375 C 84.191406 110.628906 83.859375 111.207031 83.160156 111.710938 C 82.820312 111.957031 82.804688 111.957031 81.71875 112.027344 C 81.121094 112.0625 79.808594 112.085938 78.8125 112.0625 C 76.808594 112.019531 76.527344 111.96875 75.851562 111.5 C 75.066406 110.960938 73.96875 109.636719 73.199219 108.300781 C 72.253906 106.664062 71.921875 105.332031 71.929688 103.191406 C 71.929688 101.621094 72.03125 100.820312 72.417969 99.183594 C 72.59375 98.453125 72.601562 98.367188 72.554688 96.949219 C 72.507812 95.59375 72.519531 95.355469 72.695312 94.101562 C 72.996094 91.875 73.4375 89.179688 73.8125 87.253906 C 74.242188 85.003906 74.351562 84.292969 74.351562 83.636719 C 74.351562 83.1875 74.328125 83.09375 74.179688 82.9375 C 73.96875 82.71875 73.667969 82.691406 73.5 82.871094 Z M 73.5 82.871094 "/>
</g>
</svg>
