<?xml version="1.0" encoding="UTF-8"?>
<svg xmlns="http://www.w3.org/2000/svg" xmlns:xlink="http://www.w3.org/1999/xlink" width="15pt" height="15pt" viewBox="0 0 15 15" version="1.1">
<g id="surface1">
<path style=" stroke:none;fill-rule:nonzero;fill:rgb(0%,0%,0%);fill-opacity:1;" d="M 7.5 1.078125 C 7.28125 1.140625 7.015625 1.375 6.875 1.59375 C 6.671875 1.984375 6.671875 2.046875 7 2.484375 C 7.25 2.828125 7.34375 3.171875 7.34375 3.75 L 7.34375 4.53125 L 6.1875 4.53125 C 4.96875 4.53125 4.84375 4.609375 4.84375 5.359375 C 4.828125 5.578125 4.609375 5.859375 4.21875 6.125 C 3.265625 6.78125 2.734375 7.703125 2.734375 8.65625 C 2.75 10.109375 3.875 11.765625 5.125 12.171875 C 5.640625 12.34375 5.703125 12.421875 5.71875 12.90625 C 5.734375 13.734375 5.9375 13.828125 7.46875 13.796875 C 10.75 13.703125 11.203125 13.5625 11.046875 12.65625 C 10.984375 12.359375 11.09375 12.15625 11.5625 11.75 C 11.890625 11.46875 12.359375 10.859375 12.59375 10.390625 C 12.9375 9.671875 13 9.375 12.9375 8.5625 C 12.859375 7.296875 12.453125 6.484375 11.6875 6 C 11.34375 5.78125 11.09375 5.5 11.09375 5.328125 C 11.09375 4.75 10.671875 4.53125 9.546875 4.53125 L 8.484375 4.53125 L 8.375 4.046875 C 8.1875 3.125 8.265625 2.734375 8.640625 2.578125 C 9.046875 2.390625 9.171875 1.765625 8.875 1.375 C 8.625 1.0625 8.03125 0.921875 7.5 1.078125 Z M 8.71875 1.828125 C 8.8125 2.484375 7.359375 2.71875 7.125 2.09375 C 6.953125 1.65625 7.328125 1.390625 8.03125 1.4375 C 8.5625 1.46875 8.6875 1.546875 8.71875 1.828125 Z M 8 3.671875 C 8.046875 4.515625 7.9375 4.78125 7.75 4.28125 C 7.609375 3.90625 7.640625 2.8125 7.796875 2.8125 C 7.875 2.8125 7.96875 3.203125 8 3.671875 Z M 10.5625 4.96875 C 10.65625 5.03125 10.765625 5.234375 10.8125 5.421875 C 10.90625 5.78125 10.875 5.78125 9.5625 5.78125 C 8.8125 5.78125 7.515625 5.734375 6.6875 5.671875 C 5.21875 5.578125 5.15625 5.5625 5.15625 5.203125 L 5.15625 4.84375 L 7.78125 4.84375 C 9.21875 4.84375 10.46875 4.90625 10.5625 4.96875 Z M 11.484375 6.28125 C 12.078125 6.546875 12.515625 7.375 12.609375 8.4375 C 12.6875 9.234375 12.640625 9.484375 12.28125 10.21875 C 11.578125 11.65625 11.3125 11.78125 8.875 12 C 5.15625 12.328125 3.859375 11.75 3.1875 9.40625 C 2.953125 8.640625 2.953125 8.5 3.203125 7.890625 C 3.34375 7.515625 3.734375 6.953125 4.078125 6.65625 L 4.6875 6.09375 L 7.890625 6.09375 C 10 6.09375 11.21875 6.15625 11.484375 6.28125 Z M 11.484375 6.28125 "/>
<path style=" stroke:none;fill-rule:nonzero;fill:rgb(0%,0%,0%);fill-opacity:1;" d="M 9.609375 6.515625 C 8.1875 6.890625 7.84375 8.671875 9.046875 9.484375 C 10.3125 10.34375 12.03125 9.546875 12.03125 8.109375 C 12.03125 7.421875 11.46875 6.796875 10.640625 6.5625 C 10.328125 6.484375 10.046875 6.421875 10 6.421875 C 9.953125 6.4375 9.78125 6.484375 9.609375 6.515625 Z M 10.90625 7.6875 C 11.15625 7.9375 11.140625 8.203125 10.84375 8.5 C 10.5625 8.796875 9.828125 8.828125 9.5625 8.5625 C 9.3125 8.3125 9.328125 7.703125 9.578125 7.609375 C 9.9375 7.453125 10.71875 7.5 10.90625 7.6875 Z M 10.90625 7.6875 "/>
<path style=" stroke:none;fill-rule:nonzero;fill:rgb(0%,0%,0%);fill-opacity:1;" d="M 5.078125 6.703125 C 4.5625 6.921875 4.203125 7.4375 4.109375 8.078125 C 3.953125 9.234375 5.21875 10.21875 6.40625 9.859375 C 7.578125 9.515625 8.171875 8.234375 7.5625 7.375 C 7.078125 6.6875 5.90625 6.375 5.078125 6.703125 Z M 6.578125 7.78125 C 7.234375 8.328125 6.375 9.15625 5.546875 8.78125 C 5.03125 8.546875 5 7.859375 5.515625 7.65625 C 6.03125 7.453125 6.171875 7.46875 6.578125 7.78125 Z M 6.578125 7.78125 "/>
<path style=" stroke:none;fill-rule:nonzero;fill:rgb(0%,0%,0%);fill-opacity:1;" d="M 7.421875 10.453125 C 6.625 10.546875 6.40625 10.78125 6.703125 11.234375 C 6.8125 11.390625 7.109375 11.453125 7.6875 11.421875 C 8.890625 11.375 9.0625 11.296875 9.0625 10.765625 C 9.0625 10.265625 9.046875 10.265625 7.421875 10.453125 Z M 7.421875 10.453125 "/>
</g>
</svg>
