<?xml version="1.0" encoding="UTF-8"?>
<svg xmlns="http://www.w3.org/2000/svg" xmlns:xlink="http://www.w3.org/1999/xlink" width="20pt" height="20pt" viewBox="0 0 20 20" version="1.1">
<g id="surface1">
<path style=" stroke:none;fill-rule:nonzero;fill:rgb(0%,0%,0%);fill-opacity:1;" d="M 10.046875 0.957031 C 10.007812 0.984375 10.003906 1.011719 10.019531 1.71875 C 10.027344 2.105469 10.035156 2.605469 10.042969 2.828125 C 10.089844 4.4375 10.101562 5.363281 10.078125 6.050781 C 10.027344 7.632812 9.863281 8.746094 9.527344 9.847656 C 9.441406 10.128906 9.417969 10.222656 9.382812 10.410156 C 9.316406 10.8125 9.28125 11.230469 9.230469 12.199219 C 9.140625 14.074219 9.058594 14.800781 8.839844 15.585938 C 8.769531 15.859375 8.726562 15.945312 8.578125 16.144531 C 8.359375 16.4375 7.847656 16.949219 7.386719 17.332031 C 6.597656 17.988281 5.769531 18.503906 5.179688 18.703125 C 4.933594 18.789062 4.679688 18.816406 4.546875 18.769531 C 4.421875 18.730469 4.238281 18.609375 4.074219 18.464844 C 3.683594 18.121094 3.429688 17.527344 3.328125 16.734375 C 3.28125 16.355469 3.273438 16.179688 3.277344 15.253906 L 3.28125 14.371094 L 3.25 14.347656 C 3.214844 14.324219 3.175781 14.335938 3.15625 14.371094 C 3.132812 14.40625 3.117188 15.753906 3.136719 16.117188 C 3.160156 16.636719 3.207031 16.980469 3.292969 17.324219 C 3.425781 17.847656 3.683594 18.320312 3.992188 18.582031 C 4.164062 18.730469 4.339844 18.84375 4.476562 18.898438 C 4.566406 18.933594 4.746094 18.941406 4.886719 18.921875 C 5.578125 18.820312 6.757812 18.101562 7.839844 17.125 C 8.371094 16.640625 8.75 16.207031 8.878906 15.929688 C 9.003906 15.652344 9.148438 14.980469 9.226562 14.324219 C 9.246094 14.148438 9.285156 13.738281 9.304688 13.472656 C 9.316406 13.3125 9.347656 12.785156 9.371094 12.300781 C 9.425781 11.167969 9.460938 10.765625 9.53125 10.390625 C 9.5625 10.238281 9.582031 10.152344 9.660156 9.90625 C 9.917969 9.058594 10.058594 8.3125 10.152344 7.296875 C 10.246094 6.257812 10.253906 5.28125 10.191406 3.09375 C 10.183594 2.761719 10.167969 2.15625 10.160156 1.742188 C 10.152344 1.089844 10.144531 0.988281 10.128906 0.96875 C 10.109375 0.949219 10.070312 0.941406 10.046875 0.957031 Z M 10.046875 0.957031 "/>
<path style=" stroke:none;fill-rule:nonzero;fill:rgb(0%,0%,0%);fill-opacity:1;" d="M 12.25 13.8125 C 12.238281 13.824219 12.226562 13.847656 12.222656 13.871094 C 12.21875 13.886719 12.183594 14 12.144531 14.117188 C 12.09375 14.265625 12.050781 14.433594 11.996094 14.699219 C 11.804688 15.605469 11.753906 15.785156 11.621094 16.042969 C 11.546875 16.191406 11.183594 16.816406 11.042969 17.046875 C 10.902344 17.269531 10.769531 17.441406 10.601562 17.605469 C 10.398438 17.808594 10.238281 17.929688 9.628906 18.339844 C 9.417969 18.488281 9.242188 18.5625 9.089844 18.582031 C 9.007812 18.589844 8.972656 18.609375 8.972656 18.652344 C 8.972656 18.707031 9.003906 18.722656 9.082031 18.722656 C 9.25 18.714844 9.457031 18.628906 9.6875 18.472656 C 10.472656 17.949219 10.710938 17.75 10.972656 17.402344 C 11.101562 17.230469 11.167969 17.128906 11.460938 16.621094 C 11.824219 15.992188 11.878906 15.871094 11.984375 15.425781 C 12.011719 15.300781 12.035156 15.207031 12.035156 15.210938 C 12.039062 15.214844 12.015625 15.355469 11.992188 15.519531 C 11.949219 15.808594 11.949219 15.824219 11.949219 16.109375 C 11.953125 16.386719 11.949219 16.414062 11.925781 16.523438 C 11.867188 16.757812 11.855469 16.855469 11.847656 17.121094 C 11.839844 17.511719 11.878906 17.726562 12.007812 17.988281 C 12.171875 18.324219 12.433594 18.636719 12.636719 18.746094 C 12.753906 18.808594 12.839844 18.816406 13.292969 18.816406 C 13.832031 18.820312 13.886719 18.804688 14.03125 18.65625 C 14.117188 18.566406 14.183594 18.441406 14.257812 18.222656 C 14.335938 17.992188 14.34375 17.972656 14.492188 17.65625 C 14.730469 17.144531 14.800781 16.960938 14.925781 16.53125 L 14.980469 16.347656 L 14.988281 16.472656 C 14.992188 16.539062 14.992188 16.855469 14.988281 17.167969 C 14.988281 17.675781 14.988281 17.75 15.007812 17.851562 C 15.0625 18.144531 15.179688 18.367188 15.3125 18.433594 C 15.332031 18.441406 15.40625 18.457031 15.472656 18.464844 C 15.621094 18.480469 15.644531 18.492188 15.78125 18.578125 C 15.949219 18.691406 15.984375 18.703125 16.128906 18.714844 C 16.199219 18.722656 16.363281 18.730469 16.488281 18.730469 C 16.710938 18.730469 16.710938 18.730469 16.742188 18.699219 C 16.773438 18.667969 16.773438 18.632812 16.746094 18.601562 C 16.738281 18.597656 16.597656 18.589844 16.402344 18.582031 C 16.027344 18.574219 16.039062 18.578125 15.890625 18.476562 C 15.726562 18.367188 15.667969 18.34375 15.515625 18.328125 C 15.441406 18.316406 15.371094 18.304688 15.355469 18.296875 C 15.296875 18.257812 15.207031 18.078125 15.167969 17.917969 C 15.128906 17.75 15.125 17.644531 15.128906 16.730469 L 15.136719 15.816406 L 15.167969 15.707031 C 15.226562 15.5 15.234375 15.40625 15.246094 14.855469 C 15.253906 14.570312 15.261719 14.273438 15.265625 14.195312 C 15.269531 14.070312 15.269531 14.050781 15.25 14.03125 C 15.222656 14.003906 15.171875 14 15.144531 14.027344 C 15.125 14.054688 15.117188 14.117188 15.101562 14.398438 C 15.09375 14.570312 15.085938 14.625 15.050781 14.746094 C 14.992188 14.972656 14.988281 15 15.003906 15.234375 C 15.027344 15.550781 15.015625 15.703125 14.957031 15.898438 C 14.933594 15.984375 14.882812 16.15625 14.847656 16.277344 C 14.679688 16.886719 14.628906 17.023438 14.328125 17.671875 C 14.265625 17.808594 14.183594 18.011719 14.140625 18.121094 C 14.03125 18.4375 13.976562 18.535156 13.859375 18.617188 C 13.804688 18.660156 13.800781 18.660156 13.621094 18.671875 C 13.519531 18.675781 13.300781 18.679688 13.136719 18.675781 C 12.800781 18.667969 12.753906 18.660156 12.640625 18.582031 C 12.511719 18.492188 12.328125 18.273438 12.199219 18.050781 C 12.042969 17.777344 11.988281 17.554688 11.988281 17.199219 C 11.988281 16.9375 12.003906 16.804688 12.070312 16.53125 C 12.097656 16.410156 12.101562 16.394531 12.09375 16.160156 C 12.085938 15.933594 12.085938 15.894531 12.117188 15.683594 C 12.167969 15.3125 12.238281 14.863281 12.300781 14.542969 C 12.375 14.167969 12.390625 14.050781 12.390625 13.941406 C 12.390625 13.863281 12.386719 13.847656 12.363281 13.824219 C 12.328125 13.785156 12.277344 13.78125 12.25 13.8125 Z M 12.25 13.8125 "/>
</g>
</svg>
