<?xml version="1.0" encoding="UTF-8"?>
<svg xmlns="http://www.w3.org/2000/svg" xmlns:xlink="http://www.w3.org/1999/xlink" width="20pt" height="20pt" viewBox="0 0 20 20" version="1.1">
<g id="surface1">
<path style=" stroke:none;fill-rule:nonzero;fill:rgb(0%,0%,0%);fill-opacity:1;" d="M 10 1.4375 C 9.707031 1.519531 9.355469 1.832031 9.167969 2.125 C 8.894531 2.644531 8.894531 2.730469 9.332031 3.3125 C 9.667969 3.769531 9.792969 4.230469 9.792969 5 L 9.792969 6.042969 L 8.25 6.042969 C 6.625 6.042969 6.457031 6.144531 6.457031 7.144531 C 6.4375 7.4375 6.144531 7.8125 5.625 8.167969 C 4.355469 9.042969 3.644531 10.269531 3.644531 11.542969 C 3.667969 13.480469 5.167969 15.6875 6.832031 16.230469 C 7.519531 16.457031 7.605469 16.5625 7.625 17.207031 C 7.644531 18.3125 7.917969 18.4375 9.957031 18.394531 C 14.332031 18.269531 14.9375 18.082031 14.730469 16.875 C 14.644531 16.480469 14.792969 16.207031 15.417969 15.667969 C 15.855469 15.292969 16.480469 14.480469 16.792969 13.855469 C 17.25 12.894531 17.332031 12.5 17.25 11.417969 C 17.144531 9.730469 16.605469 8.644531 15.582031 8 C 15.125 7.707031 14.792969 7.332031 14.792969 7.105469 C 14.792969 6.332031 14.230469 6.042969 12.730469 6.042969 L 11.3125 6.042969 L 11.167969 5.394531 C 10.917969 4.167969 11.019531 3.644531 11.519531 3.4375 C 12.0625 3.1875 12.230469 2.355469 11.832031 1.832031 C 11.5 1.417969 10.707031 1.230469 10 1.4375 Z M 11.625 2.4375 C 11.75 3.3125 9.8125 3.625 9.5 2.792969 C 9.269531 2.207031 9.769531 1.855469 10.707031 1.917969 C 11.417969 1.957031 11.582031 2.0625 11.625 2.4375 Z M 10.667969 4.894531 C 10.730469 6.019531 10.582031 6.375 10.332031 5.707031 C 10.144531 5.207031 10.1875 3.75 10.394531 3.75 C 10.5 3.75 10.625 4.269531 10.667969 4.894531 Z M 14.082031 6.625 C 14.207031 6.707031 14.355469 6.980469 14.417969 7.230469 C 14.542969 7.707031 14.5 7.707031 12.75 7.707031 C 11.75 7.707031 10.019531 7.644531 8.917969 7.5625 C 6.957031 7.4375 6.875 7.417969 6.875 6.9375 L 6.875 6.457031 L 10.375 6.457031 C 12.292969 6.457031 13.957031 6.542969 14.082031 6.625 Z M 15.3125 8.375 C 16.105469 8.730469 16.6875 9.832031 16.8125 11.25 C 16.917969 12.3125 16.855469 12.644531 16.375 13.625 C 15.4375 15.542969 15.082031 15.707031 11.832031 16 C 6.875 16.4375 5.144531 15.667969 4.25 12.542969 C 3.9375 11.519531 3.9375 11.332031 4.269531 10.519531 C 4.457031 10.019531 4.980469 9.269531 5.4375 8.875 L 6.25 8.125 L 10.519531 8.125 C 13.332031 8.125 14.957031 8.207031 15.3125 8.375 Z M 15.3125 8.375 "/>
<path style=" stroke:none;fill-rule:nonzero;fill:rgb(0%,0%,0%);fill-opacity:1;" d="M 12.8125 8.6875 C 10.917969 9.1875 10.457031 11.5625 12.0625 12.644531 C 13.75 13.792969 16.042969 12.730469 16.042969 10.8125 C 16.042969 9.894531 15.292969 9.0625 14.1875 8.75 C 13.769531 8.644531 13.394531 8.5625 13.332031 8.5625 C 13.269531 8.582031 13.042969 8.644531 12.8125 8.6875 Z M 14.542969 10.25 C 14.875 10.582031 14.855469 10.9375 14.457031 11.332031 C 14.082031 11.730469 13.105469 11.769531 12.75 11.417969 C 12.417969 11.082031 12.4375 10.269531 12.769531 10.144531 C 13.25 9.9375 14.292969 10 14.542969 10.25 Z M 14.542969 10.25 "/>
<path style=" stroke:none;fill-rule:nonzero;fill:rgb(0%,0%,0%);fill-opacity:1;" d="M 6.769531 8.9375 C 6.082031 9.230469 5.605469 9.917969 5.480469 10.769531 C 5.269531 12.3125 6.957031 13.625 8.542969 13.144531 C 10.105469 12.6875 10.894531 10.980469 10.082031 9.832031 C 9.4375 8.917969 7.875 8.5 6.769531 8.9375 Z M 8.769531 10.375 C 9.644531 11.105469 8.5 12.207031 7.394531 11.707031 C 6.707031 11.394531 6.667969 10.480469 7.355469 10.207031 C 8.042969 9.9375 8.230469 9.957031 8.769531 10.375 Z M 8.769531 10.375 "/>
<path style=" stroke:none;fill-rule:nonzero;fill:rgb(0%,0%,0%);fill-opacity:1;" d="M 9.894531 13.9375 C 8.832031 14.0625 8.542969 14.375 8.9375 14.980469 C 9.082031 15.1875 9.480469 15.269531 10.25 15.230469 C 11.855469 15.167969 12.082031 15.0625 12.082031 14.355469 C 12.082031 13.6875 12.0625 13.6875 9.894531 13.9375 Z M 9.894531 13.9375 "/>
</g>
</svg>
