<?xml version="1.0" encoding="UTF-8"?>
<svg xmlns="http://www.w3.org/2000/svg" xmlns:xlink="http://www.w3.org/1999/xlink" width="15pt" height="15pt" viewBox="0 0 15 15" version="1.1">
<g id="surface1">
<path style=" stroke:none;fill-rule:nonzero;fill:rgb(0%,0%,0%);fill-opacity:1;" d="M 7.535156 0.71875 C 7.503906 0.738281 7.503906 0.757812 7.515625 1.289062 C 7.519531 1.578125 7.527344 1.953125 7.53125 2.121094 C 7.570312 3.328125 7.578125 4.023438 7.558594 4.535156 C 7.519531 5.726562 7.398438 6.558594 7.144531 7.386719 C 7.078125 7.597656 7.0625 7.667969 7.039062 7.808594 C 6.984375 8.109375 6.960938 8.421875 6.925781 9.148438 C 6.855469 10.558594 6.792969 11.101562 6.632812 11.691406 C 6.574219 11.894531 6.542969 11.957031 6.433594 12.109375 C 6.269531 12.328125 5.886719 12.710938 5.542969 13 C 4.949219 13.492188 4.328125 13.875 3.882812 14.027344 C 3.699219 14.089844 3.507812 14.113281 3.410156 14.078125 C 3.316406 14.046875 3.179688 13.957031 3.054688 13.847656 C 2.761719 13.589844 2.570312 13.144531 2.496094 12.550781 C 2.460938 12.265625 2.453125 12.136719 2.457031 11.441406 L 2.460938 10.777344 L 2.4375 10.761719 C 2.410156 10.746094 2.382812 10.753906 2.367188 10.777344 C 2.347656 10.804688 2.335938 11.816406 2.351562 12.085938 C 2.371094 12.476562 2.40625 12.734375 2.46875 12.992188 C 2.566406 13.386719 2.765625 13.742188 2.992188 13.9375 C 3.125 14.046875 3.253906 14.132812 3.355469 14.171875 C 3.425781 14.199219 3.558594 14.207031 3.664062 14.191406 C 4.183594 14.117188 5.066406 13.578125 5.878906 12.84375 C 6.28125 12.480469 6.5625 12.15625 6.65625 11.945312 C 6.75 11.738281 6.859375 11.234375 6.917969 10.746094 C 6.933594 10.613281 6.964844 10.304688 6.980469 10.105469 C 6.988281 9.984375 7.011719 9.589844 7.027344 9.226562 C 7.070312 8.375 7.097656 8.074219 7.148438 7.792969 C 7.171875 7.679688 7.1875 7.613281 7.242188 7.429688 C 7.4375 6.792969 7.542969 6.234375 7.613281 5.472656 C 7.683594 4.695312 7.691406 3.960938 7.644531 2.320312 C 7.636719 2.070312 7.625 1.617188 7.621094 1.304688 C 7.613281 0.820312 7.609375 0.742188 7.597656 0.726562 C 7.582031 0.710938 7.554688 0.707031 7.535156 0.71875 Z M 7.535156 0.71875 "/>
<path style=" stroke:none;fill-rule:nonzero;fill:rgb(0%,0%,0%);fill-opacity:1;" d="M 9.1875 10.359375 C 9.179688 10.367188 9.171875 10.386719 9.167969 10.402344 C 9.164062 10.417969 9.136719 10.5 9.109375 10.589844 C 9.070312 10.699219 9.039062 10.828125 8.996094 11.023438 C 8.851562 11.703125 8.816406 11.839844 8.71875 12.03125 C 8.660156 12.144531 8.390625 12.613281 8.28125 12.785156 C 8.179688 12.953125 8.074219 13.082031 7.953125 13.203125 C 7.796875 13.355469 7.679688 13.449219 7.222656 13.757812 C 7.0625 13.863281 6.933594 13.921875 6.816406 13.933594 C 6.757812 13.941406 6.730469 13.957031 6.730469 13.988281 C 6.730469 14.027344 6.75 14.042969 6.8125 14.039062 C 6.9375 14.035156 7.09375 13.972656 7.265625 13.855469 C 7.855469 13.464844 8.035156 13.3125 8.230469 13.050781 C 8.328125 12.921875 8.375 12.847656 8.597656 12.464844 C 8.867188 11.996094 8.910156 11.902344 8.988281 11.570312 C 9.007812 11.476562 9.027344 11.40625 9.027344 11.410156 C 9.027344 11.414062 9.011719 11.515625 8.996094 11.636719 C 8.960938 11.855469 8.960938 11.867188 8.964844 12.082031 C 8.964844 12.289062 8.964844 12.308594 8.945312 12.394531 C 8.902344 12.570312 8.890625 12.640625 8.886719 12.839844 C 8.878906 13.132812 8.910156 13.296875 9.003906 13.492188 C 9.128906 13.742188 9.324219 13.976562 9.476562 14.058594 C 9.566406 14.105469 9.628906 14.113281 9.96875 14.113281 C 10.371094 14.113281 10.414062 14.105469 10.523438 13.992188 C 10.589844 13.925781 10.636719 13.832031 10.695312 13.667969 C 10.753906 13.496094 10.757812 13.480469 10.871094 13.242188 C 11.046875 12.859375 11.101562 12.71875 11.195312 12.398438 L 11.234375 12.257812 L 11.242188 12.351562 C 11.242188 12.40625 11.246094 12.640625 11.242188 12.875 C 11.242188 13.257812 11.242188 13.3125 11.257812 13.390625 C 11.296875 13.605469 11.386719 13.773438 11.484375 13.824219 C 11.5 13.832031 11.554688 13.84375 11.605469 13.847656 C 11.71875 13.863281 11.734375 13.867188 11.835938 13.933594 C 11.964844 14.015625 11.988281 14.027344 12.097656 14.039062 C 12.152344 14.042969 12.273438 14.046875 12.363281 14.046875 C 12.535156 14.046875 12.535156 14.046875 12.558594 14.023438 C 12.578125 14 12.582031 13.976562 12.558594 13.953125 C 12.554688 13.945312 12.449219 13.941406 12.300781 13.9375 C 12.019531 13.933594 12.03125 13.933594 11.917969 13.859375 C 11.792969 13.777344 11.753906 13.757812 11.636719 13.746094 C 11.582031 13.738281 11.527344 13.726562 11.519531 13.722656 C 11.472656 13.695312 11.40625 13.558594 11.378906 13.4375 C 11.347656 13.3125 11.34375 13.234375 11.347656 12.546875 L 11.351562 11.863281 L 11.375 11.78125 C 11.417969 11.625 11.425781 11.554688 11.433594 11.140625 C 11.441406 10.925781 11.445312 10.707031 11.449219 10.648438 C 11.453125 10.554688 11.453125 10.539062 11.4375 10.523438 C 11.417969 10.5 11.378906 10.5 11.359375 10.519531 C 11.34375 10.539062 11.335938 10.585938 11.328125 10.800781 C 11.320312 10.925781 11.3125 10.96875 11.289062 11.058594 C 11.242188 11.230469 11.242188 11.25 11.253906 11.425781 C 11.269531 11.664062 11.261719 11.777344 11.21875 11.921875 C 11.199219 11.988281 11.160156 12.117188 11.136719 12.207031 C 11.007812 12.667969 10.972656 12.765625 10.746094 13.253906 C 10.699219 13.355469 10.636719 13.507812 10.605469 13.59375 C 10.523438 13.828125 10.480469 13.902344 10.394531 13.964844 C 10.351562 13.996094 10.351562 13.996094 10.214844 14.003906 C 10.140625 14.007812 9.976562 14.011719 9.851562 14.007812 C 9.601562 14.003906 9.566406 13.996094 9.480469 13.9375 C 9.382812 13.871094 9.246094 13.703125 9.148438 13.539062 C 9.03125 13.332031 8.992188 13.167969 8.992188 12.898438 C 8.992188 12.703125 9.003906 12.601562 9.050781 12.398438 C 9.074219 12.308594 9.074219 12.296875 9.070312 12.117188 C 9.0625 11.949219 9.066406 11.917969 9.085938 11.761719 C 9.125 11.484375 9.179688 11.148438 9.226562 10.90625 C 9.28125 10.625 9.292969 10.535156 9.292969 10.453125 C 9.292969 10.398438 9.289062 10.386719 9.273438 10.367188 C 9.246094 10.339844 9.207031 10.335938 9.1875 10.359375 Z M 9.1875 10.359375 "/>
</g>
</svg>
